<?xml version="1.0" standalone="no"?><!DOCTYPE svg PUBLIC "-//W3C//DTD SVG 1.1//EN" "http://www.w3.org/Graphics/SVG/1.1/DTD/svg11.dtd"><svg t="1554901149663" class="icon" style="" viewBox="0 0 1024 1024" version="1.1" xmlns="http://www.w3.org/2000/svg" p-id="2984" xmlns:xlink="http://www.w3.org/1999/xlink" width="200" height="200"><defs><style type="text/css"></style></defs><path d="M448.652881 870.368027c-234.263014 0-425.014737-190.664983-425.105512-425.041969C23.638144 210.847202 214.388859 20.048074 448.738613 20.003696c234.435486 0 425.197295 190.75374 425.278992 425.236631C874.017605 679.652614 683.264873 870.368027 448.652881 870.368027L448.652881 870.368027 448.652881 870.368027zM448.738613 64.904846C239.113842 64.950234 68.538286 235.588323 68.447512 445.326058c0.090775 209.609642 170.66633 380.114595 380.204361 380.114595 209.780096 0 380.464582-170.548323 380.464582-380.199318C829.033748 235.551005 658.431969 64.904846 448.738613 64.904846L448.738613 64.904846 448.738613 64.904846zM448.738613 64.904846" p-id="2985"></path><path d="M448.652881 873.89815c-236.259046 0-428.543852-192.255556-428.635635-428.571084C20.109029 208.899583 212.432162 16.51896 448.738613 16.473572c236.36495 0 428.72641 192.343304 428.809115 428.765745C877.547728 681.60225 685.146933 873.89815 448.652881 873.89815zM448.738613 23.533819C216.324375 23.578198 27.167259 212.793813 27.077493 445.327066c0.089766 232.42029 189.207546 421.510838 421.575388 421.510838 232.60083 0 421.835609-189.127867 421.835609-421.596569C870.406793 212.711107 681.21135 23.533819 448.738613 23.533819zM448.652881 828.970776c-211.500779 0-383.64371-172.101578-383.734484-383.64371C65.009171 233.658859 237.190429 61.42011 448.737604 61.374723l0.001009 0c211.602648 0 383.823242 172.200421 383.907965 383.864595C832.647586 656.829863 660.388666 828.970776 448.652881 828.970776zM448.739621 68.434969C241.082642 68.479348 72.067401 237.553089 71.977635 445.327066c0.089766 207.646893 169.065672 376.583463 376.674238 376.583463 207.842563 0 376.934458-168.97288 376.934458-376.669195C825.504634 237.470383 656.450057 68.434969 448.739621 68.434969L448.739621 68.434969z" p-id="2986"></path><path d="M197.03679 445.108199 152.107398 445.108199c0-163.575826 133.147172-296.653404 296.631214-296.653404l0 44.901151C309.979553 193.349894 197.03679 306.301735 197.03679 445.108199L197.03679 445.108199 197.03679 445.108199zM197.03679 445.108199" p-id="2987"></path><path d="M200.566913 448.638322 148.577275 448.638322l0-3.530123c0-165.521428 134.652013-300.183527 300.161338-300.183527l3.530123 0 0 51.961397-3.530123 0c-66.16863-0.003026-128.457151 25.846554-175.389635 72.787107-46.934502 46.94257-72.783073 109.24622-72.783073 175.435023L200.565905 448.638322zM155.658702 441.578075l37.871162 0c0.903712-66.754631 27.395774-129.457689 74.82651-176.896494 47.429727-47.437796 110.116648-73.929858 176.852115-74.831553l0-37.84393C286.376141 153.883116 157.535719 282.733623 155.658702 441.578075z" p-id="2988"></path><path d="M982.155366 1018.344743c-5.694593 0-11.478952-2.168504-15.870426-6.560986l-250.049725-250.023501c-8.778912-8.754706-8.778912-22.967991 0-31.747911 8.781938-8.761766 22.977068-8.761766 31.75598 0l250.042665 250.023501c8.755714 8.772861 8.755714 22.967991 0 31.747911C993.645413 1016.17523 987.947794 1018.344743 982.155366 1018.344743L982.155366 1018.344743 982.155366 1018.344743zM982.155366 1018.344743" p-id="2989"></path><path d="M982.155366 1021.874866c-6.947283 0-13.468933-2.697014-18.366727-7.594808l-250.049725-250.023501c-4.906871-4.892751-7.613972-11.40835-7.619015-18.34252-0.005043-6.946274 2.701049-13.480028 7.619015-18.396985 4.916957-4.904854 11.441634-7.604894 18.375804-7.604894s13.457838 2.70004 18.370761 7.601868l250.044682 250.026527c10.107247 10.126411 10.107247 26.606035 0.004034 36.73648C995.636403 1019.176843 989.110718 1021.874866 982.155366 1021.874866zM732.114719 726.972403c-5.052111 0-9.805674 1.966783-13.386227 5.539268-3.579545 3.580554-5.550362 8.33916-5.547337 13.397322 0.004034 5.046059 1.973843 9.787519 5.547337 13.350926l250.052751 250.027536c3.564416 3.563407 8.313945 5.526156 13.375133 5.526156 5.06724 0 9.819794-1.96174 13.382193-5.526156 7.358794-7.377958 7.358794-19.383403-0.002017-26.758334L745.495903 732.508645C741.918375 728.939186 737.165821 726.972403 732.114719 726.972403z" p-id="2990"></path></svg>